<svg width="178" height="52" viewBox="0 0 178 52" fill="none" xmlns="http://www.w3.org/2000/svg">
<g clipPath="url(#clip0_1_8)">
<path d="M0 40.1078C18.9511 32.3483 30.2664 31.4043 52.5532 40.1078" stroke="#008080" strokeWidth="7.37589"/>
<path d="M0 12.817C18.9511 20.5766 30.2664 21.5206 52.5532 12.817" stroke="#008080" strokeWidth="7.37589"/>
<path d="M0 50.7121C18.9511 42.9525 30.2664 42.0085 52.5532 50.7121" stroke="#008080" strokeWidth="7.37589"/>
<path d="M0 2.21278C18.9511 9.97233 30.2664 10.9163 52.5532 2.21278" stroke="#008080" strokeWidth="7.37589"/>
</g>
<path d="M65.876 34.604V30.626H69.412C70.296 30.626 71.0933 30.496 71.804 30.236C72.5147 29.9587 73.1213 29.5773 73.624 29.092C74.1267 28.5893 74.508 27.9913 74.768 27.298C75.028 26.5873 75.158 25.8073 75.158 24.958C75.158 24.074 75.028 23.2853 74.768 22.592C74.508 21.8987 74.1267 21.3093 73.624 20.824C73.1213 20.3387 72.5147 19.9747 71.804 19.732C71.0933 19.472 70.296 19.342 69.412 19.342H65.876V15.364H69.178C70.894 15.364 72.3933 15.6153 73.676 16.118C74.9587 16.6207 76.0333 17.3053 76.9 18.172C77.7667 19.0387 78.408 20.0353 78.824 21.162C79.2573 22.2713 79.474 23.4413 79.474 24.672V25.244C79.474 26.388 79.2573 27.5233 78.824 28.65C78.408 29.7593 77.7667 30.7647 76.9 31.666C76.0333 32.55 74.9587 33.2607 73.676 33.798C72.3933 34.3353 70.894 34.604 69.178 34.604H65.876ZM62.132 34.604V15.364H66.396V34.604H62.132ZM82.1065 34.5V20.252H86.2665V34.5H82.1065ZM80.2085 23.32V20.252H86.2665V23.32H80.2085ZM83.7185 18.848C82.9385 18.848 82.3578 18.6487 81.9765 18.25C81.6125 17.834 81.4305 17.314 81.4305 16.69C81.4305 16.0487 81.6125 15.5287 81.9765 15.13C82.3578 14.714 82.9385 14.506 83.7185 14.506C84.4985 14.506 85.0705 14.714 85.4345 15.13C85.8158 15.5287 86.0065 16.0487 86.0065 16.69C86.0065 17.314 85.8158 17.834 85.4345 18.25C85.0705 18.6487 84.4985 18.848 83.7185 18.848ZM94.9501 40.168C94.2568 40.168 93.5461 40.142 92.8181 40.09C92.0901 40.038 91.4228 39.9687 90.8161 39.882V36.372C91.4228 36.4587 92.0901 36.528 92.8181 36.58C93.5634 36.6493 94.2394 36.684 94.8461 36.684C95.9728 36.684 96.8828 36.554 97.5761 36.294C98.2868 36.034 98.8068 35.6353 99.1361 35.098C99.4654 34.578 99.6301 33.902 99.6301 33.07V30.236L100.384 28.572C100.349 29.8373 100.098 30.9207 99.6301 31.822C99.1794 32.7233 98.5468 33.4167 97.7321 33.902C96.9174 34.37 95.9468 34.604 94.8201 34.604C93.8494 34.604 92.9654 34.4307 92.1681 34.084C91.3881 33.72 90.7208 33.2173 90.1661 32.576C89.6114 31.9347 89.1868 31.1893 88.8921 30.34C88.5974 29.4733 88.4501 28.5373 88.4501 27.532V26.934C88.4501 25.9287 88.6061 24.9927 88.9181 24.126C89.2301 23.2593 89.6808 22.5053 90.2701 21.864C90.8594 21.2227 91.5614 20.7287 92.3761 20.382C93.1908 20.018 94.0921 19.836 95.0801 19.836C96.2241 19.836 97.2121 20.0873 98.0441 20.59C98.8934 21.0927 99.5608 21.8293 100.046 22.8C100.531 23.7707 100.791 24.9407 100.826 26.31L100.254 26.466V20.252H103.556V32.81C103.556 34.5607 103.244 35.9733 102.62 37.048C101.996 38.1227 101.043 38.9113 99.7601 39.414C98.4948 39.9167 96.8914 40.168 94.9501 40.168ZM96.1201 31.094C96.7614 31.094 97.3421 30.9553 97.8621 30.678C98.3821 30.3833 98.7894 29.9673 99.0841 29.43C99.3961 28.8927 99.5521 28.2427 99.5521 27.48V26.726C99.5521 25.9807 99.3874 25.3567 99.0581 24.854C98.7461 24.334 98.3301 23.944 97.8101 23.684C97.2901 23.4067 96.7354 23.268 96.1461 23.268C95.4528 23.268 94.8374 23.4327 94.3001 23.762C93.7628 24.0913 93.3468 24.5507 93.0521 25.14C92.7574 25.7293 92.6101 26.4227 92.6101 27.22C92.6101 28.0347 92.7574 28.7367 93.0521 29.326C93.3641 29.898 93.7801 30.34 94.3001 30.652C94.8374 30.9467 95.4441 31.094 96.1201 31.094ZM107.054 34.5V20.252H111.214V34.5H107.054ZM105.156 23.32V20.252H111.214V23.32H105.156ZM108.666 18.848C107.886 18.848 107.306 18.6487 106.924 18.25C106.56 17.834 106.378 17.314 106.378 16.69C106.378 16.0487 106.56 15.5287 106.924 15.13C107.306 14.714 107.886 14.506 108.666 14.506C109.446 14.506 110.018 14.714 110.382 15.13C110.764 15.5287 110.954 16.0487 110.954 16.69C110.954 17.314 110.764 17.834 110.382 18.25C110.018 18.6487 109.446 18.848 108.666 18.848ZM123.226 34.994C121.51 34.994 120.037 34.6993 118.806 34.11C117.575 33.5033 116.57 32.7147 115.79 31.744C115.01 30.756 114.429 29.6987 114.048 28.572C113.684 27.428 113.502 26.3187 113.502 25.244V24.672C113.502 23.4933 113.693 22.332 114.074 21.188C114.455 20.0267 115.036 18.978 115.816 18.042C116.613 17.106 117.61 16.3607 118.806 15.806C120.019 15.234 121.449 14.948 123.096 14.948C124.812 14.948 126.329 15.2687 127.646 15.91C128.963 16.5513 130.012 17.444 130.792 18.588C131.589 19.7147 132.057 21.0407 132.196 22.566H127.906C127.785 21.8033 127.507 21.1533 127.074 20.616C126.641 20.0787 126.077 19.6627 125.384 19.368C124.708 19.0733 123.945 18.926 123.096 18.926C122.247 18.926 121.493 19.0733 120.834 19.368C120.175 19.6627 119.621 20.0787 119.17 20.616C118.737 21.1533 118.399 21.7947 118.156 22.54C117.931 23.268 117.818 24.0827 117.818 24.984C117.818 25.868 117.931 26.6827 118.156 27.428C118.399 28.156 118.745 28.7973 119.196 29.352C119.664 29.8893 120.236 30.3053 120.912 30.6C121.588 30.8773 122.359 31.016 123.226 31.016C124.543 31.016 125.653 30.6953 126.554 30.054C127.473 29.4127 128.027 28.5287 128.218 27.402H132.482C132.326 28.7887 131.858 30.0627 131.078 31.224C130.315 32.368 129.267 33.2867 127.932 33.98C126.615 34.656 125.046 34.994 123.226 34.994ZM142.903 34.5V30.288H142.201V25.712C142.201 24.984 142.027 24.438 141.681 24.074C141.334 23.71 140.779 23.528 140.017 23.528C139.635 23.528 139.133 23.5367 138.509 23.554C137.885 23.5713 137.243 23.5973 136.585 23.632C135.926 23.6667 135.328 23.7013 134.791 23.736V20.226C135.189 20.1913 135.657 20.1567 136.195 20.122C136.732 20.0873 137.287 20.0613 137.859 20.044C138.431 20.0267 138.968 20.018 139.471 20.018C140.927 20.018 142.149 20.226 143.137 20.642C144.142 21.058 144.905 21.6907 145.425 22.54C145.945 23.372 146.205 24.4467 146.205 25.764V34.5H142.903ZM138.353 34.864C137.33 34.864 136.429 34.682 135.649 34.318C134.886 33.954 134.288 33.434 133.855 32.758C133.421 32.0647 133.205 31.2413 133.205 30.288C133.205 29.248 133.473 28.3987 134.011 27.74C134.548 27.064 135.302 26.57 136.273 26.258C137.243 25.9287 138.361 25.764 139.627 25.764H142.669V28.078H139.601C138.873 28.078 138.309 28.26 137.911 28.624C137.529 28.9707 137.339 29.4473 137.339 30.054C137.339 30.626 137.529 31.094 137.911 31.458C138.309 31.8047 138.873 31.978 139.601 31.978C140.069 31.978 140.485 31.9 140.849 31.744C141.23 31.5707 141.542 31.2847 141.785 30.886C142.027 30.4873 142.166 29.9327 142.201 29.222L143.189 30.262C143.102 31.25 142.859 32.082 142.461 32.758C142.079 33.434 141.542 33.954 140.849 34.318C140.173 34.682 139.341 34.864 138.353 34.864ZM154.362 34.942C152.334 34.942 150.748 34.526 149.604 33.694C148.46 32.862 147.854 31.692 147.784 30.184H151.476C151.546 30.6347 151.814 31.042 152.282 31.406C152.768 31.7527 153.487 31.926 154.44 31.926C155.168 31.926 155.766 31.8047 156.234 31.562C156.72 31.302 156.962 30.938 156.962 30.47C156.962 30.054 156.78 29.7247 156.416 29.482C156.052 29.222 155.402 29.04 154.466 28.936L153.348 28.832C151.632 28.6587 150.341 28.182 149.474 27.402C148.625 26.622 148.2 25.6253 148.2 24.412C148.2 23.4067 148.452 22.566 148.954 21.89C149.457 21.214 150.15 20.7027 151.034 20.356C151.936 20.0093 152.958 19.836 154.102 19.836C155.94 19.836 157.422 20.2433 158.548 21.058C159.675 21.8553 160.264 23.0167 160.316 24.542H156.624C156.555 24.074 156.312 23.684 155.896 23.372C155.48 23.0427 154.865 22.878 154.05 22.878C153.409 22.878 152.898 22.9993 152.516 23.242C152.135 23.4847 151.944 23.814 151.944 24.23C151.944 24.6287 152.109 24.932 152.438 25.14C152.768 25.348 153.305 25.4953 154.05 25.582L155.168 25.686C156.919 25.8767 158.28 26.362 159.25 27.142C160.221 27.922 160.706 28.9707 160.706 30.288C160.706 31.2413 160.446 32.0733 159.926 32.784C159.406 33.4773 158.67 34.0147 157.716 34.396C156.763 34.76 155.645 34.942 154.362 34.942ZM172.658 34.5L168.16 27.844H166.158L171.956 20.252H176.324L170.864 27.324L170.916 25.296L177.338 34.5H172.658ZM162.622 34.5V15.52H166.782V34.5H162.622Z" fill="white"/>
<defs>
<clipPath id="clip0_1_8">
<rect width="52" height="52" rx="26" fill="white"/>
</clipPath>
</defs>
</svg>
